<svg width="512" height="512" viewBox="0 0 512 512" fill="none" xmlns="http://www.w3.org/2000/svg">
<g clip-path="url(#clip0_70_7)">
<path d="M510.661 186.382C509.02 181.317 505.927 176.846 501.766 173.523C497.606 170.201 492.561 168.174 487.259 167.693L339.459 154.275L281.048 17.5228C276.735 7.47567 266.923 0.992554 256 0.992554C245.078 0.992554 235.262 7.47567 230.977 17.5228L172.566 154.275L24.7434 167.693C13.9063 168.694 4.7301 176.034 1.34004 186.382C-0.311854 191.451 -0.440349 196.894 0.970471 202.035C2.38129 207.177 5.26944 211.792 9.27718 215.308L121.002 313.274L88.0606 458.364C85.6505 469.032 89.7906 480.064 98.6427 486.462C103.279 489.835 108.866 491.651 114.6 491.646C119.515 491.647 124.337 490.312 128.553 487.786L256 411.582L383.425 487.786C387.996 490.521 393.269 491.853 398.591 491.618C403.912 491.383 409.048 489.59 413.359 486.462C422.21 480.064 426.351 469.032 423.941 458.364L390.999 313.275L502.724 215.309C506.732 211.793 509.62 207.178 511.031 202.037C512.442 196.895 512.313 191.452 510.661 186.383V186.382Z" fill="#228BE6"/>
</g>
<defs>
<clipPath id="clip0_70_7">
<rect width="512" height="512" fill="white"/>
</clipPath>
</defs>
</svg>
